<svg width="21" height="26" viewBox="0 0 21 26" fill="none" xmlns="http://www.w3.org/2000/svg">
<path d="M10.9201 5.56379C10.8404 5.56466 10.7613 5.54981 10.6874 5.52011C10.6134 5.4904 10.546 5.44641 10.489 5.39066C10.4321 5.3349 10.3866 5.26847 10.3553 5.19516C10.324 5.12185 10.3075 5.04309 10.3066 4.96338C10.3066 2.64025 12.2306 0.758845 14.5995 0.758845C14.6793 0.757764 14.7585 0.772461 14.8325 0.80209C14.9066 0.83172 14.9741 0.875697 15.0311 0.931494C15.0881 0.987291 15.1335 1.05381 15.1648 1.12722C15.196 1.20063 15.2124 1.27949 15.213 1.35926C15.213 3.68239 13.2907 5.56379 10.9201 5.56379Z" fill="#1E1E1E"/>
<path d="M10.9198 5.56379C10.8401 5.56466 10.761 5.54981 10.687 5.52011C10.613 5.4904 10.5456 5.44641 10.4887 5.39066C10.4317 5.3349 10.3863 5.26847 10.355 5.19516C10.3237 5.12185 10.3071 5.04309 10.3063 4.96338C10.3063 2.64025 12.2302 0.758845 14.5992 0.758845C14.6789 0.757764 14.7581 0.772461 14.8322 0.80209C14.9062 0.83172 14.9737 0.875697 15.0307 0.931494C15.0878 0.987291 15.1332 1.05381 15.1644 1.12722C15.1956 1.20063 15.212 1.27949 15.2127 1.35926C15.2127 3.68239 13.2903 5.56379 10.9198 5.56379ZM19.8769 18.2118C20.1141 18.3852 20.191 18.7026 20.0569 18.9611C17.8973 23.1918 16.1746 25.2989 14.6008 25.2989C13.8679 25.2989 13.148 25.0666 12.4462 24.6151C11.9424 24.2917 11.3591 24.1138 10.7606 24.1011C10.1621 24.0884 9.57174 24.2414 9.05473 24.5431C8.204 25.0421 7.39418 25.2989 6.62526 25.2989C4.31031 25.2989 0.490234 18.3181 0.490234 14.4882C0.490234 10.3982 2.68085 7.27997 6.01176 7.27997C7.57905 7.27997 8.93203 7.50573 10.0691 7.96545C10.55 8.1585 11.0948 8.14541 11.5644 7.92455C12.4871 7.48937 13.7043 7.27997 15.2127 7.27997C17.0564 7.27997 18.6646 8.17977 19.9996 9.92212C20.0479 9.98495 20.0831 10.0568 20.1031 10.1335C20.1231 10.2102 20.1275 10.2901 20.1161 10.3685C20.1046 10.4469 20.0776 10.5222 20.0365 10.59C19.9954 10.6578 19.9411 10.7166 19.8769 10.763C18.3865 11.8591 17.6683 13.0878 17.6683 14.4882C17.6683 15.887 18.3865 17.1173 19.8769 18.2118Z" fill="#1E1E1E"/>
</svg>
