<svg width="20" height="21" viewBox="0 0 20 21" fill="none" xmlns="http://www.w3.org/2000/svg">
<g clip-path="url(#clip0_186_757)">
<path d="M4.74538 15.8307C5.95708 17.0425 7.55147 17.7965 9.25685 17.9644C10.9622 18.1323 12.673 17.7036 14.0978 16.7514C15.5225 15.7992 16.5729 14.3825 17.0701 12.7425C17.5673 11.1026 17.4804 9.34107 16.8243 7.75804C16.1682 6.17501 14.9834 4.86847 13.4719 4.06109C11.9604 3.2537 10.2158 2.99543 8.53517 3.33029C6.85459 3.66515 5.34213 4.57241 4.25553 5.89747C3.16892 7.22252 2.57543 8.88337 2.57617 10.597V12.2395" stroke="#444444" stroke-width="2.05729" stroke-linecap="round" stroke-linejoin="round"/>
<path d="M0.930664 10.5934L2.5765 12.2393L4.22233 10.5934M9.15983 7.30176V11.4163H13.2744" stroke="#444444" stroke-width="2.05729" stroke-linecap="round" stroke-linejoin="round"/>
</g>
<defs>
<clipPath id="clip0_186_757">
<rect width="19.75" height="19.75" fill="white" transform="translate(0.106445 0.71875)"/>
</clipPath>
</defs>
</svg>
