<svg width="21" height="21" viewBox="0 0 21 21" fill="none" xmlns="http://www.w3.org/2000/svg">
<path d="M18.376 6.54004H2.37598V4.54004H18.376V6.54004ZM16.376 0.540039H4.37598V2.54004H16.376V0.540039ZM20.376 10.54V18.54C20.376 19.0705 20.1653 19.5792 19.7902 19.9543C19.4151 20.3293 18.9064 20.54 18.376 20.54H2.37598C1.84554 20.54 1.33684 20.3293 0.961763 19.9543C0.58669 19.5792 0.375977 19.0705 0.375977 18.54V10.54C0.375977 10.0096 0.58669 9.5009 0.961763 9.12583C1.33684 8.75075 1.84554 8.54004 2.37598 8.54004H18.376C18.9064 8.54004 19.4151 8.75075 19.7902 9.12583C20.1653 9.5009 20.376 10.0096 20.376 10.54ZM14.376 14.54L8.37598 11.27V17.8L14.376 14.54Z" fill="#FFFFFD"/>
</svg>
