<svg width="22" height="22" viewBox="0 0 22 22" fill="none" xmlns="http://www.w3.org/2000/svg">
<path d="M16.1917 8.59435L19.3737 11.7763C19.89 12.2858 20.3005 12.8924 20.5814 13.5611C20.8624 14.2299 21.0083 14.9476 21.0107 15.673C21.0131 16.3983 20.872 17.117 20.5956 17.7876C20.3191 18.4583 19.9127 19.0676 19.3998 19.5805C18.8869 20.0934 18.2776 20.4998 17.607 20.7763C16.9363 21.0527 16.2177 21.1938 15.4923 21.1914C14.7669 21.1889 14.0492 21.0431 13.3805 20.7621C12.7117 20.4811 12.1051 20.0707 11.5957 19.5543L10.5357 18.4943C10.3923 18.356 10.278 18.1906 10.1993 18.0076C10.1206 17.8246 10.0791 17.6278 10.0773 17.4287C10.0755 17.2295 10.1133 17.032 10.1887 16.8476C10.264 16.6632 10.3753 16.4957 10.5161 16.3548C10.6568 16.2139 10.8243 16.1024 11.0086 16.0269C11.1929 15.9514 11.3904 15.9133 11.5895 15.915C11.7887 15.9166 11.9856 15.9579 12.1686 16.0364C12.3517 16.115 12.5172 16.2291 12.6557 16.3723L13.7177 17.4333C14.1873 17.8987 14.8221 18.1591 15.4832 18.1576C16.1444 18.1561 16.778 17.8927 17.2454 17.4251C17.7129 16.9576 17.9761 16.3239 17.9774 15.6627C17.9788 15.0016 17.7182 14.3668 17.2527 13.8973L14.0707 10.7153C13.7267 10.3713 13.2899 10.135 12.8137 10.0355C12.3375 9.93607 11.8426 9.97771 11.3897 10.1553C11.2283 10.2193 11.077 10.2847 10.9357 10.3513L10.4717 10.5683C9.85166 10.8483 9.37466 10.9683 8.76766 10.3623C7.89566 9.49035 8.12166 8.68535 9.18466 7.95235C10.2436 7.22371 11.5242 6.88896 12.8043 7.00624C14.0843 7.12351 15.2828 7.68541 16.1917 8.59435ZM10.1817 2.58435L11.2417 3.64435C11.515 3.92712 11.6664 4.30595 11.6632 4.69925C11.6599 5.09255 11.5024 5.46885 11.2244 5.74709C10.9464 6.02533 10.5703 6.18327 10.177 6.18687C9.78367 6.19047 9.40469 6.03945 9.12166 5.76635L8.06066 4.70635C7.83011 4.46751 7.5543 4.27697 7.24933 4.14587C6.94436 4.01476 6.61633 3.9457 6.28438 3.94272C5.95243 3.93974 5.62322 4.00291 5.31594 4.12852C5.00866 4.25414 4.72948 4.43969 4.49468 4.67435C4.25989 4.90902 4.07418 5.1881 3.94839 5.4953C3.8226 5.80251 3.75925 6.13169 3.76204 6.46363C3.76483 6.79558 3.8337 7.12365 3.96464 7.4287C4.09557 7.73375 4.28595 8.00966 4.52466 8.24035L7.70666 11.4223C8.05059 11.7664 8.48743 12.0027 8.96365 12.1021C9.43987 12.2016 9.93476 12.16 10.3877 11.9823C10.549 11.9183 10.7003 11.853 10.8417 11.7863L11.3057 11.5693C11.9257 11.2893 12.4037 11.1693 13.0097 11.7753C13.8817 12.6473 13.6557 13.4523 12.5927 14.1853C11.5338 14.914 10.2531 15.2487 8.97306 15.1315C7.69304 15.0142 6.49453 14.4523 5.58566 13.5433L2.40366 10.3613C1.88732 9.85188 1.47686 9.24531 1.1959 8.57656C0.914953 7.9078 0.769063 7.19008 0.766632 6.46472C0.764202 5.73935 0.905281 5.02066 1.18175 4.35004C1.45821 3.67942 1.8646 3.07012 2.37751 2.5572C2.89043 2.04429 3.49974 1.6379 4.17036 1.36143C4.84098 1.08497 5.55966 0.94389 6.28503 0.94632C7.01039 0.94875 7.72812 1.09464 8.39687 1.37559C9.06562 1.65654 9.67219 2.06801 10.1817 2.58435Z" fill="#444444"/>
</svg>
