<svg width="24" height="23" viewBox="0 0 24 23" fill="none" xmlns="http://www.w3.org/2000/svg">
<path opacity="0.7" d="M11.6162 6.51864e-07C9.62102 -0.000671026 7.66002 0.517739 5.92584 1.50429C4.19167 2.49085 2.744 3.9116 1.72508 5.62695C0.706151 7.3423 0.15103 9.29323 0.114258 11.288C0.0774867 13.2829 0.560329 15.2529 1.51534 17.0047L0.15451 21.7772C0.106626 21.9447 0.105351 22.1222 0.15082 22.2905C0.19629 22.4587 0.286783 22.6114 0.412561 22.732C0.538338 22.8527 0.694637 22.9368 0.864636 22.9752C1.03463 23.0136 1.2119 23.005 1.37734 22.9502L5.85851 21.4571C7.38582 22.3397 9.0957 22.8591 10.8559 22.9751C12.616 23.0911 14.3793 22.8007 16.0092 22.1262C17.6392 21.4518 19.0922 20.4114 20.2557 19.0856C21.4193 17.7598 22.2622 16.1841 22.7194 14.4804C23.1766 12.7767 23.2357 10.9907 22.8922 9.26044C22.5486 7.53023 21.8117 5.90224 20.7383 4.50241C19.665 3.10257 18.284 1.96842 16.7022 1.1877C15.1204 0.406968 13.3802 0.000590236 11.6162 6.51864e-07ZM7.78284 9.58333C7.78284 9.32917 7.88381 9.08541 8.06353 8.90569C8.24325 8.72597 8.48701 8.625 8.74118 8.625H14.4912C14.7453 8.625 14.9891 8.72597 15.1688 8.90569C15.3485 9.08541 15.4495 9.32917 15.4495 9.58333C15.4495 9.8375 15.3485 10.0813 15.1688 10.261C14.9891 10.4407 14.7453 10.5417 14.4912 10.5417H8.74118C8.48701 10.5417 8.24325 10.4407 8.06353 10.261C7.88381 10.0813 7.78284 9.8375 7.78284 9.58333ZM8.74118 12.4583H12.5745C12.8287 12.4583 13.0724 12.5593 13.2522 12.739C13.4319 12.9187 13.5328 13.1625 13.5328 13.4167C13.5328 13.6708 13.4319 13.9146 13.2522 14.0943C13.0724 14.274 12.8287 14.375 12.5745 14.375H8.74118C8.48701 14.375 8.24325 14.274 8.06353 14.0943C7.88381 13.9146 7.78284 13.6708 7.78284 13.4167C7.78284 13.1625 7.88381 12.9187 8.06353 12.739C8.24325 12.5593 8.48701 12.4583 8.74118 12.4583Z" fill="white"/>
</svg>
