<svg width="19" height="19" viewBox="0 0 19 19" fill="none" xmlns="http://www.w3.org/2000/svg">
<path d="M9.37896 0.731446C7.84346 0.730929 6.33423 1.12991 4.99959 1.88917C3.66494 2.64844 2.55079 3.74188 1.76661 5.06204C0.982425 6.3822 0.555194 7.88367 0.526894 9.41891C0.498594 10.9542 0.870198 12.4703 1.60519 13.8185L0.557872 17.4915C0.52102 17.6205 0.520039 17.7571 0.555033 17.8866C0.590027 18.016 0.659672 18.1335 0.756473 18.2264C0.853273 18.3193 0.973563 18.384 1.1044 18.4135C1.23523 18.4431 1.37165 18.4365 1.49898 18.3943L4.94776 17.2452C6.12321 17.9244 7.43916 18.3242 8.79381 18.4135C10.1485 18.5028 11.5055 18.2792 12.7599 17.7602C14.0144 17.2411 15.1326 16.4404 16.0281 15.4201C16.9236 14.3997 17.5723 13.187 17.9242 11.8758C18.276 10.5646 18.3215 9.19003 18.0571 7.85843C17.7928 6.52684 17.2256 5.27391 16.3995 4.19657C15.5734 3.11924 14.5106 2.24638 13.2932 1.64552C12.0758 1.04465 10.7365 0.7319 9.37896 0.731446ZM6.42876 8.10694C6.42876 7.91133 6.50647 7.72373 6.64479 7.58541C6.7831 7.44709 6.9707 7.36939 7.16631 7.36939H11.5916C11.7872 7.36939 11.9748 7.44709 12.1131 7.58541C12.2514 7.72373 12.3292 7.91133 12.3292 8.10694C12.3292 8.30255 12.2514 8.49014 12.1131 8.62846C11.9748 8.76678 11.7872 8.84449 11.5916 8.84449H7.16631C6.9707 8.84449 6.7831 8.76678 6.64479 8.62846C6.50647 8.49014 6.42876 8.30255 6.42876 8.10694ZM7.16631 10.3196H10.1165C10.3121 10.3196 10.4997 10.3973 10.638 10.5356C10.7764 10.6739 10.8541 10.8615 10.8541 11.0571C10.8541 11.2527 10.7764 11.4403 10.638 11.5787C10.4997 11.717 10.3121 11.7947 10.1165 11.7947H7.16631C6.9707 11.7947 6.7831 11.717 6.64479 11.5787C6.50647 11.4403 6.42876 11.2527 6.42876 11.0571C6.42876 10.8615 6.50647 10.6739 6.64479 10.5356C6.7831 10.3973 6.9707 10.3196 7.16631 10.3196Z" fill="#FFFFFD"/>
</svg>
