<svg width="21" height="23" viewBox="0 0 21 23" fill="none" xmlns="http://www.w3.org/2000/svg">
<path d="M14.9432 7.26506L13.5001 5.82346L6.28502 13.0372C5.08937 14.2328 5.08937 16.1706 6.28502 17.3648C7.48067 18.559 9.41845 18.5605 10.6141 17.3648L19.2723 8.70809C21.2655 6.71629 21.2655 3.48619 19.2723 1.49438C17.279 -0.497417 14.0489 -0.498839 12.0571 1.49438L2.96678 10.5833C2.95967 10.5904 2.95256 10.5961 2.94687 10.6018C0.167449 13.3812 0.167449 17.8852 2.94687 20.6632C5.72629 23.4412 10.2302 23.4412 13.0097 20.6632C13.0153 20.6575 13.021 20.6504 13.0281 20.6433L13.0296 20.6447L19.2353 14.4404L17.7923 12.9988L11.5865 19.2017C11.5794 19.2073 11.5737 19.2145 11.5681 19.2201C9.58905 21.1991 6.37033 21.1991 4.39132 19.2201C2.41231 17.2411 2.41231 14.0238 4.39132 12.0448C4.39843 12.0377 4.40411 12.032 4.41122 12.0263L4.4098 12.0249L13.5016 2.93599C14.6944 1.74176 16.6364 1.74176 17.8306 2.93599C19.0249 4.13022 19.0235 6.07084 17.8306 7.26364L9.17249 15.9204C8.77442 16.3184 8.12755 16.3184 7.72947 15.9204C7.33139 15.5223 7.33139 14.8754 7.72947 14.4788L14.9446 7.26364L14.9432 7.26506Z" fill="#444444"/>
</svg>
