<svg width="22" height="22" viewBox="0 0 22 22" fill="none" xmlns="http://www.w3.org/2000/svg">
<path d="M7.562 1.46191C5.43772 2.19884 3.60574 3.59756 2.33516 5.45262C1.06457 7.30768 0.422354 9.5213 0.502831 11.7683C0.583308 14.0154 1.38224 16.1774 2.78227 17.9368C4.18231 19.6962 6.10965 20.9603 8.28121 21.5434C10.0417 21.9976 11.8862 22.0176 13.6562 21.6015C15.2596 21.2413 16.742 20.471 17.9582 19.3658C19.224 18.1804 20.1428 16.6724 20.6158 15.004C21.1297 13.1896 21.2212 11.2816 20.8832 9.42638H10.9969V13.5274H16.7224C16.608 14.1815 16.3628 14.8057 16.0014 15.3628C15.6401 15.9199 15.1701 16.3984 14.6196 16.7697C13.9205 17.2323 13.1324 17.5435 12.3058 17.6832C11.4769 17.8374 10.6266 17.8374 9.7977 17.6832C8.95749 17.5097 8.16268 17.1629 7.464 16.665C6.34141 15.8704 5.4985 14.7414 5.05555 13.4394C4.60524 12.1129 4.60524 10.6748 5.05555 9.34832C5.37085 8.41852 5.89209 7.57194 6.58035 6.87177C7.36798 6.0558 8.36514 5.47254 9.46243 5.18599C10.5597 4.89943 11.7148 4.92065 12.8008 5.24732C13.6492 5.50763 14.4251 5.96267 15.0664 6.57611C15.712 5.93386 16.3564 5.28995 16.9998 4.64438C17.332 4.29723 17.6941 3.96669 18.0213 3.61124C17.0422 2.70021 15.893 1.99127 14.6395 1.52502C12.3568 0.696171 9.85912 0.673896 7.562 1.46191Z" fill="white"/>
<path d="M7.56121 1.46174C9.85815 0.673191 12.3558 0.694879 14.6387 1.52319C15.8924 1.99261 17.0411 2.70496 18.0188 3.61937C17.6866 3.97483 17.3362 4.30702 16.9973 4.65251C16.3529 5.29587 15.709 5.93702 15.0656 6.57595C14.4243 5.9625 13.6484 5.50747 12.8 5.24715C11.7143 4.91934 10.5593 4.89689 9.46176 5.18227C8.36417 5.46766 7.3664 6.04984 6.5779 6.86496C5.88964 7.56513 5.36841 8.41171 5.05311 9.34151L1.60986 6.67561C2.84234 4.23155 4.97629 2.36204 7.56121 1.46174Z" fill="#E33629"/>
<path d="M0.696681 9.31677C0.881616 8.39952 1.18888 7.51125 1.61023 6.67578L5.05348 9.34832C4.60316 10.6748 4.60316 12.1129 5.05348 13.4394C3.90628 14.3252 2.75853 15.2155 1.61023 16.1102C0.555747 14.0113 0.234148 11.6197 0.696681 9.31677Z" fill="#F8BD00"/>
<path d="M10.9963 9.4248H20.8826C21.2206 11.28 21.1291 13.188 20.6152 15.0024C20.1422 16.6709 19.2234 18.1788 17.9576 19.3642C16.8464 18.4972 15.7302 17.6368 14.619 16.7697C15.1699 16.3981 15.6401 15.9191 16.0014 15.3614C16.3628 14.8037 16.6078 14.1788 16.7218 13.5241H10.9963C10.9947 12.1588 10.9963 10.7918 10.9963 9.4248Z" fill="#587DBD"/>
<path d="M1.6084 16.1103C2.7567 15.2245 3.90445 14.3342 5.05164 13.4395C5.49548 14.742 6.33959 15.871 7.46341 16.6651C8.16427 17.1607 8.96079 17.5046 9.80209 17.675C10.631 17.8292 11.4813 17.8292 12.3102 17.675C13.1368 17.5353 13.9249 17.2241 14.624 16.7614C15.7352 17.6285 16.8514 18.4889 17.9626 19.3559C16.7465 20.4617 15.2641 21.2327 13.6606 21.5933C11.8906 22.0094 10.0461 21.9894 8.2856 21.5351C6.89319 21.1634 5.59259 20.508 4.46531 19.6101C3.27226 18.6627 2.29777 17.4689 1.6084 16.1103Z" fill="#319F43"/>
</svg>
