<svg width="24" height="23" viewBox="0 0 24 23" fill="none" xmlns="http://www.w3.org/2000/svg">
<g clip-path="url(#clip0_186_896)">
<path d="M4.80703 2.15163C4.80703 2.74006 4.79463 3.31057 4.80978 3.87971C4.83459 4.82781 5.4368 5.47963 6.26087 5.47549C7.09184 5.47136 7.66373 4.82918 7.68853 3.86455C7.70231 3.33675 7.70645 2.81034 7.72023 2.28254C7.72161 2.2412 7.75881 2.20262 7.82083 2.07997C9.49378 2.07997 11.2095 2.07033 12.9238 2.09926C13.0519 2.10202 13.2696 2.36661 13.2848 2.52508C13.333 3.02531 13.2876 3.53519 13.3124 4.03818C13.3523 4.85399 13.9463 5.45482 14.6987 5.47549C15.4787 5.49616 16.1098 4.88844 16.1663 4.04783C16.1842 3.7736 16.1704 3.49661 16.1746 3.221C16.1994 1.94079 15.9596 2.07308 17.3707 2.08411C18.8135 2.09513 20.0827 3.0515 20.1516 4.44057C20.2674 6.79291 20.1833 9.15627 20.1833 11.5982C17.2605 11.2151 14.8379 12.0584 13.3206 14.634C11.8075 17.2041 12.1631 19.7301 14.0165 22.1871C13.6899 22.2092 13.4584 22.2381 13.2255 22.2381C10.147 22.2409 7.06841 22.2436 3.98984 22.2381C1.86075 22.234 0.767958 21.1384 0.76658 19.0107C0.763824 14.532 0.835483 10.0534 0.736263 5.57747C0.683897 3.23891 2.10191 1.71203 4.80703 2.15163ZM10.475 8.7208C12.7928 8.7208 15.1107 8.7208 17.4286 8.7208C17.6119 8.7208 17.7965 8.72218 17.9798 8.71529C18.4125 8.69875 18.746 8.47 18.6509 8.04694C18.5958 7.80302 18.2403 7.59769 17.9798 7.44335C17.8434 7.36204 17.6215 7.42681 17.4369 7.42681C12.961 7.42681 8.48643 7.42681 4.01051 7.42681C3.64395 7.42681 3.25121 7.3524 2.91772 7.45851C2.67518 7.53568 2.35961 7.85401 2.35547 8.06898C2.35272 8.27845 2.67656 8.5389 2.91221 8.68911C3.06241 8.78419 3.3146 8.71942 3.52131 8.71942C5.83919 8.72218 8.15707 8.7208 10.475 8.7208ZM5.93979 13.267C6.87824 13.267 7.81669 13.2684 8.75515 13.267C9.18234 13.267 9.55855 13.1636 9.5682 12.6483C9.57784 12.0984 9.19199 11.9744 8.7331 11.9744C6.85619 11.9744 4.97928 11.9758 3.101 11.9744C2.64762 11.9744 2.31413 12.1522 2.31827 12.6358C2.3224 13.1292 2.67932 13.2711 3.12305 13.2698C4.06288 13.2629 5.00133 13.2656 5.93979 13.267ZM5.89569 17.5321C6.83414 17.5321 7.77397 17.5307 8.71243 17.5321C9.16718 17.5321 9.57095 17.4273 9.56958 16.8789C9.5682 16.3318 9.16029 16.2257 8.70829 16.2243C6.85344 16.2243 4.99858 16.2257 3.14234 16.2229C2.66554 16.2229 2.30173 16.391 2.32102 16.9175C2.33894 17.408 2.7055 17.5376 3.14648 17.5334C4.06426 17.5279 4.98066 17.5321 5.89569 17.5321Z" fill="white"/>
<path d="M18.7432 22.9413C15.9196 22.9302 13.6872 20.6744 13.6968 17.8425C13.7065 15.0368 15.9789 12.7974 18.808 12.8057C21.6137 12.814 23.8958 15.1181 23.8613 17.9072C23.8269 20.7378 21.5765 22.9509 18.7432 22.9413ZM19.5466 18.8402C19.9366 18.8402 20.3445 18.9077 20.7111 18.8154C20.9371 18.7589 21.1011 18.4557 21.2926 18.2641C21.0983 18.074 20.9274 17.7625 20.7042 17.7184C20.1737 17.6137 19.3854 17.8411 19.1318 17.5545C18.8342 17.2168 19.0409 16.4672 18.9251 15.9187C18.881 15.7079 18.5517 15.5563 18.3519 15.3771C18.1755 15.5756 17.8971 15.752 17.8447 15.9793C17.7593 16.35 17.8186 16.7538 17.8186 17.1452C17.8199 18.8843 17.6256 18.8719 19.5466 18.8402Z" fill="white"/>
<path d="M15.583 2.33404C15.583 2.81498 15.6078 3.2973 15.5761 3.77548C15.5431 4.27572 15.2647 4.58578 14.7383 4.58853C14.2119 4.59129 13.9087 4.27158 13.888 3.78375C13.8494 2.82325 13.8508 1.85999 13.8825 0.899489C13.9004 0.37583 14.2146 0.035451 14.7658 0.0492315C15.2812 0.0630121 15.5555 0.392366 15.583 0.891221C15.6092 1.37078 15.5885 1.8531 15.5885 2.33404C15.5872 2.33404 15.5844 2.33404 15.583 2.33404Z" fill="white"/>
<path d="M5.42023 2.27466C5.42023 1.79372 5.40094 1.3114 5.42575 0.831843C5.45331 0.305427 5.78542 0.0394633 6.28703 0.0532438C6.75143 0.0656463 7.08079 0.32472 7.09043 0.819441C7.1111 1.80475 7.10835 2.79005 7.09319 3.77536C7.08492 4.29902 6.77624 4.57877 6.2636 4.58428C5.74683 4.59117 5.44642 4.30729 5.42437 3.78776C5.4037 3.2834 5.41886 2.77903 5.42023 2.27466Z" fill="white"/>
</g>
<defs>
<clipPath id="clip0_186_896">
<rect width="23.1265" height="22.8922" fill="white" transform="translate(0.734863 0.0488281)"/>
</clipPath>
</defs>
</svg>
