<svg width="16" height="17" viewBox="0 0 16 17" fill="none" xmlns="http://www.w3.org/2000/svg">
<path d="M14.0651 12.385C14.0651 13.341 14.0651 14.297 14.0651 15.2524C14.0651 16.0582 13.6177 16.4996 12.8087 16.5007C11.8347 16.5007 10.8607 16.4947 9.88667 16.5056C9.67581 16.5056 9.60862 16.4559 9.61026 16.2325C9.62064 14.9214 9.61572 13.6103 9.61518 12.2993C9.61518 11.7077 9.38028 11.4728 8.7903 11.4717C8.51716 11.4717 8.24403 11.4678 7.97089 11.4717C7.52568 11.4793 7.26074 11.7448 7.26074 12.1922C7.25746 13.5213 7.25418 14.8504 7.26401 16.18C7.26401 16.416 7.22359 16.5078 6.95701 16.5039C5.98355 16.4859 5.00954 16.4985 4.03553 16.4963C3.26583 16.4963 2.81188 16.0429 2.81133 15.2732C2.8086 13.3339 2.80478 11.3946 2.8168 9.45647C2.8168 9.18333 2.73813 9.11341 2.48029 9.13198C2.16345 9.15438 1.84334 9.13198 1.52486 9.14072C1.45733 9.14533 1.38979 9.13192 1.32913 9.10188C1.26847 9.07184 1.21688 9.02624 1.17961 8.96974C0.821803 8.51141 0.860589 7.90068 1.29597 7.45874C1.86409 6.88133 2.44041 6.31157 3.01345 5.73907C4.53282 4.22043 6.05147 2.70106 7.56938 1.18096C7.89714 0.84992 8.27462 0.712805 8.73349 0.824245C8.93701 0.878491 9.12119 0.988847 9.26501 1.14272C11.3693 3.24733 13.4737 5.35249 15.5783 7.4582C16.0153 7.89522 16.0525 8.51688 15.6957 8.96919C15.6582 9.02535 15.6067 9.07073 15.5462 9.10082C15.4858 9.13091 15.4185 9.14466 15.3511 9.14072C15.0233 9.12979 14.6955 9.15165 14.3678 9.13253C14.1318 9.11832 14.0553 9.18715 14.0591 9.43188C14.0733 10.419 14.0651 11.4023 14.0651 12.385Z" fill="#EC1C24"/>
</svg>
