<svg width="23" height="24" viewBox="0 0 23 24" fill="none" xmlns="http://www.w3.org/2000/svg">
<path d="M12.1883 16.3363C13.0664 16.3379 13.4161 16.6875 13.4161 17.5681C13.4163 18.0018 13.4168 18.4355 13.4173 18.8692C13.419 20.3869 13.4208 21.9046 13.4088 23.4223C13.4063 23.7549 13.5063 23.8289 13.8202 23.8289C14.8903 23.8169 15.9604 23.8186 17.0305 23.8203C17.4101 23.8209 17.7897 23.8216 18.1694 23.8216C19.3736 23.8199 20.0395 23.163 20.0395 21.9636V17.6957C20.0395 17.3041 20.0404 16.9124 20.0412 16.5205C20.0436 15.4488 20.046 14.376 20.0305 13.3002L12.1883 16.3363ZM12.1883 16.3363C12.0528 16.3363 11.9173 16.3356 11.7818 16.335M12.1883 16.3363L11.7818 16.335M11.7818 16.335C11.5107 16.3337 11.2397 16.3325 10.9687 16.3363L11.7818 16.335ZM19.9013 13.3022C19.9167 14.3768 19.9144 15.448 19.912 16.5192C19.9111 16.9113 19.9102 17.3034 19.9102 17.6957V17.7041V17.7124V17.7208V17.7291V17.7374V17.7458V17.7541V17.7624V17.7708V17.7791V17.7875V17.7958V17.8041V17.8125V17.8208V17.8291V17.8375V17.8458V17.8542V17.8625V17.8708V17.8792V17.8875V17.8958V17.9042V17.9125V17.9209V17.9292V17.9375V17.9459V17.9542V17.9625V17.9709V17.9792V17.9876V17.9959V18.0042V18.0126V18.0209V18.0292V18.0376V18.0459V18.0543V18.0626V18.0709V18.0793V18.0876V18.0959V18.1043V18.1126V18.121V18.1293V18.1376V18.146V18.1543V18.1626V18.171V18.1793V18.1876V18.196V18.2043V18.2127V18.221V18.2293V18.2377V18.246V18.2543V18.2627V18.271V18.2794V18.2877V18.296V18.3044V18.3127V18.321V18.3294V18.3377V18.3461V18.3544V18.3627V18.3711V18.3794V18.3877V18.3961V18.4044V18.4128V18.4211V18.4294V18.4378V18.4461V18.4544V18.4628V18.4711V18.4795V18.4878V18.4961V18.5045V18.5128V18.5211V18.5295V18.5378V18.5461V18.5545V18.5628V18.5712V18.5795V18.5878V18.5962V18.6045V18.6128V18.6212V18.6295V18.6379V18.6462V18.6545V18.6629V18.6712V18.6795V18.6879V18.6962V18.7046V18.7129V18.7212V18.7296V18.7379V18.7462V18.7546V18.7629V18.7712V18.7796V18.7879V18.7963V18.8046V18.8129V18.8213V18.8296V18.8379V18.8463V18.8546V18.863V18.8713V18.8796V18.888V18.8963V18.9046V18.913V18.9213V18.9297V18.938V18.9463V18.9547V18.963V18.9713V18.9797V18.988V18.9963V19.0047V19.013V19.0214V19.0297V19.038V19.0464V19.0547V19.063V19.0714V19.0797V19.0881V19.0964V19.1047V19.1131V19.1214V19.1297V19.1381V19.1464V19.1547V19.1631V19.1714V19.1798V19.1881V19.1964V19.2048V19.2131V19.2214V19.2298V19.2381V19.2465V19.2548V19.2631V19.2715V19.2798V19.2881V19.2965V19.3048V19.3131V19.3215V19.3298V19.3382V19.3465V19.3548V19.3632V19.3715V19.3798V19.3882V19.3965V19.4048V19.4132V19.4215V19.4299V19.4382V19.4465V19.4549V19.4632V19.4715V19.4799V19.4882V19.4965V19.5049V19.5132V19.5216V19.5299V19.5382V19.5466V19.5549V19.5632V19.5716V19.5799V19.5882V19.5966V19.6049V19.6133V19.6216V19.6299V19.6383V19.6466V19.6549V19.6633V19.6716V19.6799V19.6883V19.6966V19.705V19.7133V19.7216V19.73V19.7383V19.7466V19.755V19.7633V19.7716V19.78V19.7883V19.7967V19.805V19.8133V19.8217V19.83V19.8383V19.8467V19.855V19.8633V19.8717V19.88V19.8884V19.8967V19.905V19.9134V19.9217V19.93V19.9384V19.9467V19.955V19.9634V19.9717V19.9801V19.9884V19.9967V20.0051V20.0134V20.0217V20.0301V20.0384V20.0467V20.0551V20.0634V20.0717V20.0801V20.0884V20.0968V20.1051V20.1134V20.1218V20.1301V20.1384V20.1468V20.1551V20.1634V20.1718V20.1801V20.1884V20.1968V20.2051V20.2135V20.2218V20.2301V20.2385V20.2468V20.2551V20.2635V20.2718V20.2801V20.2885V20.2968V20.3051V20.3135V20.3218V20.3302V20.3385V20.3468V20.3552V20.3635V20.3718V20.3802V20.3885V20.3968V20.4052V20.4135V20.4218V20.4302V20.4385V20.4468V20.4552V20.4635V20.4719V20.4802V20.4885V20.4969V20.5052V20.5135V20.5219V20.5302V20.5385V20.5469V20.5552V20.5635V20.5719V20.5802V20.5885V20.5969V20.6052V20.6136V20.6219V20.6302V20.6386V20.6469V20.6552V20.6636V20.6719V20.6802V20.6886V20.6969V20.7052V20.7136V20.7219V20.7302V20.7386V20.7469V20.7552V20.7636V20.7719V20.7803V20.7886V20.7969V20.8053V20.8136V20.8219V20.8303V20.8386V20.8469V20.8553V20.8636V20.8719V20.8803V20.8886V20.8969V20.9053V20.9136V20.9219V20.9303V20.9386V20.9469V20.9553V20.9636V20.9719V20.9803V20.9886V20.997V21.0053V21.0136V21.022V21.0303V21.0386V21.047V21.0553V21.0636V21.072V21.0803V21.0886V21.097V21.1053V21.1136V21.122V21.1303V21.1386V21.147V21.1553V21.1636V21.172V21.1803V21.1886V21.197V21.2053V21.2136V21.222V21.2303V21.2386V21.247V21.2553V21.2636V21.272V21.2803V21.2887V21.297V21.3053V21.3137V21.322V21.3303V21.3387V21.347V21.3553V21.3637V21.372V21.3803V21.3887V21.397V21.4053V21.4137V21.422V21.4303V21.4387V21.447V21.4553V21.4637V21.472V21.4803V21.4887V21.497V21.5053V21.5137V21.522V21.5303V21.5387V21.547V21.5553V21.5637V21.572V21.5803V21.5887V21.597V21.6053V21.6137V21.622V21.6303V21.6387V21.647V21.6553V21.6637V21.672V21.6803V21.6887V21.697V21.7053V21.7137V21.722V21.7303V21.7387V21.747V21.7553V21.7637V21.772V21.7803V21.7887V21.797V21.8053V21.8137V21.822V21.8303V21.8387V21.847V21.8553V21.8637V21.872V21.8803V21.8887V21.897V21.9053V21.9137V21.922V21.9303V21.9386V21.947V21.9553V21.9636C19.9102 22.5399 19.7506 22.9667 19.465 23.2499C19.1791 23.5334 18.7486 23.6915 18.1692 23.6923C17.7901 23.6923 17.4108 23.6917 17.0314 23.6911C15.9613 23.6893 14.8902 23.6876 13.8194 23.6996C13.662 23.6995 13.6076 23.6779 13.5844 23.6561C13.5637 23.6367 13.5368 23.5867 13.538 23.4234C13.55 21.905 13.5483 20.3865 13.5465 18.8687C13.546 18.4351 13.5455 18.0015 13.5453 17.5681L19.9013 13.3022ZM20.0371 12.8394C19.9228 12.9487 19.8984 13.1163 19.9013 13.3021L13.5453 17.568C13.5453 17.1152 13.4563 16.7651 13.223 16.5313C12.9897 16.2974 12.6402 16.2078 12.1885 16.207H12.1883C12.0541 16.207 11.9192 16.2064 11.784 16.2057C11.5122 16.2045 11.2391 16.2032 10.9669 16.207L10.9665 16.207C10.6099 16.2131 10.3103 16.3232 10.0998 16.5361C9.88913 16.7491 9.78246 17.05 9.78239 17.4084V17.4087L9.78239 17.409C9.77751 19.3868 9.77264 21.3653 9.78727 23.3447C9.78726 23.4301 9.78345 23.4946 9.77396 23.5444C9.76459 23.5935 9.75115 23.6202 9.73767 23.6363C9.71364 23.6651 9.65462 23.6999 9.46155 23.6972C8.48276 23.6791 7.50254 23.6817 6.52381 23.6843C6.05258 23.6856 5.5817 23.6868 5.11148 23.6858H5.11119C4.56369 23.6858 4.1445 23.525 3.86218 23.243C3.57987 22.9609 3.41872 22.5419 3.41833 21.9945V21.9944C3.41807 21.8082 3.4178 21.6221 3.41753 21.4359C3.41363 18.7355 3.40973 16.0358 3.42646 13.3376V13.3368C3.42646 13.1324 3.39989 12.9529 3.27971 12.8388C3.15851 12.7236 2.98045 12.711 2.78721 12.7249C2.55702 12.7411 2.32447 12.7412 2.08758 12.7387C2.04548 12.7382 2.00319 12.7377 1.96075 12.7372C1.76591 12.7347 1.56795 12.7322 1.37069 12.7376L1.37069 12.7375L1.36544 12.7378C1.28776 12.7431 1.21006 12.7277 1.14028 12.6932C1.0705 12.6586 1.01115 12.6062 0.968283 12.5412L0.968628 12.5409L0.962263 12.5328C0.471799 11.9045 0.520661 11.0681 1.12564 10.454L1.1257 10.454C1.73833 9.83135 2.35716 9.21489 2.97643 8.59799C3.21141 8.3639 3.44647 8.12975 3.68127 7.89517L3.68129 7.89515C5.94279 5.63474 8.2032 3.37324 10.4625 1.11066L10.4629 1.11027C10.9234 0.645172 11.4399 0.460626 12.0718 0.613647C12.3508 0.688278 12.6032 0.839687 12.8004 1.05067L12.8004 1.05072L12.8035 1.0538C15.9355 4.18635 19.0678 7.31972 22.2003 10.4539L22.2003 10.4539C22.8067 11.0603 22.8535 11.9121 22.365 12.5315L22.3647 12.5312L22.3591 12.5397C22.3157 12.6046 22.2562 12.657 22.1864 12.6917C22.1166 12.7264 22.0389 12.7423 21.961 12.7378L21.961 12.7377L21.9578 12.7376C21.7379 12.7303 21.5181 12.7327 21.3016 12.7351C21.2745 12.7354 21.2474 12.7357 21.2204 12.736C20.9765 12.7386 20.7365 12.7395 20.4975 12.7256C20.3186 12.7148 20.1514 12.7302 20.0371 12.8394Z" fill="white" stroke="white" stroke-width="0.258541"/>
</svg>
