<svg width="16" height="19" viewBox="0 0 16 19" fill="none" xmlns="http://www.w3.org/2000/svg">
<path d="M14.3294 8.71234H13.4922V6.20073C13.4922 3.27749 11.1131 0.898438 8.18988 0.898438C5.26664 0.898438 2.88759 3.27749 2.88759 6.20073V8.71234H2.05038C1.12597 8.71234 0.375977 9.46234 0.375977 10.3868V17.0844C0.375977 18.0088 1.12597 18.7588 2.05038 18.7588H14.3294C15.2538 18.7588 16.0038 18.0088 16.0038 17.0844V10.3868C16.0038 9.46234 15.2538 8.71234 14.3294 8.71234ZM10.7015 8.71234H5.67827V6.20073C5.67827 4.81585 6.80501 3.68912 8.18988 3.68912C9.57476 3.68912 10.7015 4.81585 10.7015 6.20073V8.71234Z" fill="#FFFFFD"/>
</svg>
