<svg width="16" height="21" viewBox="0 0 16 21" fill="none" xmlns="http://www.w3.org/2000/svg">
<path fill-rule="evenodd" clip-rule="evenodd" d="M10.0557 1.09375C10.0557 1.02745 10.0293 0.963857 9.98244 0.916973C9.93556 0.870089 9.87197 0.84375 9.80566 0.84375H2.80566C2.07632 0.84375 1.37685 1.13348 0.86112 1.64921C0.345395 2.16493 0.0556641 2.8644 0.0556641 3.59375V17.5938C0.0556641 18.3231 0.345395 19.0226 0.86112 19.5383C1.37685 20.054 2.07632 20.3438 2.80566 20.3438H12.8057C13.535 20.3438 14.2345 20.054 14.7502 19.5383C15.2659 19.0226 15.5557 18.3231 15.5557 17.5938V7.74075C15.5557 7.67445 15.5293 7.61086 15.4824 7.56397C15.4356 7.51709 15.372 7.49075 15.3057 7.49075H10.8057C10.6068 7.49075 10.416 7.41173 10.2753 7.27108C10.1347 7.13043 10.0557 6.93966 10.0557 6.74075V1.09375ZM10.8057 10.8438C11.0046 10.8438 11.1953 10.9228 11.336 11.0634C11.4766 11.2041 11.5557 11.3948 11.5557 11.5938C11.5557 11.7927 11.4766 11.9834 11.336 12.1241C11.1953 12.2647 11.0046 12.3438 10.8057 12.3438H4.80566C4.60675 12.3438 4.41599 12.2647 4.27533 12.1241C4.13468 11.9834 4.05566 11.7927 4.05566 11.5938C4.05566 11.3948 4.13468 11.2041 4.27533 11.0634C4.41599 10.9228 4.60675 10.8438 4.80566 10.8438H10.8057ZM10.8057 14.8438C11.0046 14.8438 11.1953 14.9228 11.336 15.0634C11.4766 15.2041 11.5557 15.3948 11.5557 15.5938C11.5557 15.7927 11.4766 15.9834 11.336 16.1241C11.1953 16.2647 11.0046 16.3438 10.8057 16.3438H4.80566C4.60675 16.3438 4.41599 16.2647 4.27533 16.1241C4.13468 15.9834 4.05566 15.7927 4.05566 15.5938C4.05566 15.3948 4.13468 15.2041 4.27533 15.0634C4.41599 14.9228 4.60675 14.8438 4.80566 14.8438H10.8057Z" fill="#444444"/>
<path d="M11.5557 1.41819C11.5557 1.23419 11.7487 1.1172 11.8917 1.2322C12.013 1.3302 12.1207 1.4442 12.2147 1.5742L15.2277 5.77119C15.2957 5.86719 15.2217 5.99119 15.1037 5.99119H11.8057C11.7394 5.99119 11.6758 5.96486 11.6289 5.91797C11.582 5.87109 11.5557 5.8075 11.5557 5.74119V1.41819Z" fill="#444444"/>
</svg>
