<svg width="19" height="20" viewBox="0 0 19 20" fill="none" xmlns="http://www.w3.org/2000/svg">
<path d="M15.7559 7.65492V7.02336C15.7559 3.55738 13.0469 0.748047 9.70904 0.748047C6.37117 0.748047 3.66217 3.55738 3.66217 7.02336V7.65492C3.66324 8.40881 3.4481 9.1472 3.04225 9.78253L2.04967 11.3278C1.14398 12.7388 1.83556 14.6568 3.41133 15.1029C7.52868 16.2701 11.8894 16.2701 16.0068 15.1029C17.5825 14.6568 18.2741 12.7388 17.3684 11.3287L16.3758 9.78342C15.9697 9.14819 15.7542 8.4098 15.755 7.65582L15.7559 7.65492Z" stroke="#1E1E1E" stroke-width="1.34375"/>
<path d="M5.67773 15.9766C6.26451 17.5425 7.84744 18.6641 9.70898 18.6641C11.5705 18.6641 13.1535 17.5425 13.7402 15.9766" stroke="#1E1E1E" stroke-width="1.34375" stroke-linecap="round"/>
</svg>
