<svg width="19" height="19" viewBox="0 0 19 19" fill="none" xmlns="http://www.w3.org/2000/svg">
<path d="M18.7149 15.5045V15.5005C18.7149 15.5005 15.229 12.0249 15.2268 12.0233C14.9504 11.7472 14.5084 11.7532 14.2365 12.0251L12.632 13.6333C12.0082 14.2561 11.2038 13.7035 9.65986 12.4468C8.63835 11.6154 7.46305 10.4973 6.444 9.23681C5.72885 8.35242 5.09644 7.42365 5.74976 6.77168C5.75146 6.76999 7.36093 5.1676 7.36062 5.16591L7.36185 5.16254C7.65068 4.87424 7.62269 4.43258 7.35893 4.16899V4.165C7.35893 4.165 3.77226 0.589339 3.77026 0.58719C3.49389 0.311324 3.05204 0.317465 2.77997 0.589032L1.16358 2.20247C0.497648 3.03436 -0.982326 6.99919 5.36251 13.491C12.0465 20.3302 16.3595 18.8672 17.102 18.0955C17.102 18.0955 18.7167 16.5028 18.7167 16.5013L18.7181 16.498C19.0069 16.2096 18.9785 15.7682 18.7149 15.5045Z" fill="#FFFFFD"/>
</svg>
