<svg width="19" height="23" viewBox="0 0 19 23" fill="none" xmlns="http://www.w3.org/2000/svg">
<path d="M1.99566 4.06375C1.27566 4.38375 0.805664 5.10375 0.805664 5.89375V10.5938C0.805664 16.1438 4.64566 21.3337 9.80566 22.5938C14.9657 21.3337 18.8057 16.1438 18.8057 10.5938V5.89375C18.8057 5.10375 18.3357 4.38375 17.6157 4.06375L10.6157 0.95375C10.0957 0.72375 9.50566 0.72375 8.99566 0.95375L1.99566 4.06375ZM9.80566 6.59375C10.3557 6.59375 10.8057 7.04375 10.8057 7.59375C10.8057 8.14375 10.3557 8.59375 9.80566 8.59375C9.25566 8.59375 8.80566 8.14375 8.80566 7.59375C8.80566 7.04375 9.25566 6.59375 9.80566 6.59375ZM9.80566 10.5938C10.3557 10.5938 10.8057 11.0437 10.8057 11.5938V15.5938C10.8057 16.1438 10.3557 16.5938 9.80566 16.5938C9.25566 16.5938 8.80566 16.1438 8.80566 15.5938V11.5938C8.80566 11.0437 9.25566 10.5938 9.80566 10.5938Z" fill="#444444"/>
</svg>
