<svg width="23" height="23" viewBox="0 0 23 23" fill="none" xmlns="http://www.w3.org/2000/svg">
<path d="M10.929 20.4479C5.74987 20.4479 1.5332 16.2312 1.5332 11.0521C1.5332 5.87292 5.74987 1.65625 10.929 1.65625C16.1082 1.65625 20.3249 5.87292 20.3249 11.0521C20.3249 16.2312 16.1082 20.4479 10.929 20.4479ZM10.929 3.03125C6.50154 3.03125 2.9082 6.63375 2.9082 11.0521C2.9082 15.4704 6.50154 19.0729 10.929 19.0729C15.3565 19.0729 18.9499 15.4704 18.9499 11.0521C18.9499 6.63375 15.3565 3.03125 10.929 3.03125Z" fill="#878686"/>
<path d="M20.5537 21.3642C20.3795 21.3642 20.2054 21.3001 20.0679 21.1626L18.2345 19.3292C17.9687 19.0634 17.9687 18.6234 18.2345 18.3576C18.5004 18.0917 18.9404 18.0917 19.2062 18.3576L21.0395 20.1909C21.3054 20.4567 21.3054 20.8967 21.0395 21.1626C20.902 21.3001 20.7279 21.3642 20.5537 21.3642Z" fill="#878686"/>
</svg>
