<svg width="24" height="23" viewBox="0 0 24 23" fill="none" xmlns="http://www.w3.org/2000/svg">
<path d="M1.14045 0.0734182L23.032 10.8606C23.3852 11.0346 23.5304 11.462 23.3564 11.8151C23.287 11.956 23.1729 12.0701 23.032 12.1395L1.1409 22.9264C0.787736 23.1004 0.360369 22.9552 0.186348 22.6021C0.110253 22.4476 0.0926133 22.2709 0.136687 22.1045L2.30561 13.914C2.37734 13.6431 2.60109 13.4394 2.87748 13.3933L12.688 11.7576C12.8082 11.7375 12.9075 11.6582 12.9553 11.5503L12.981 11.4646C13.0087 11.2981 12.9163 11.1394 12.767 11.0771L12.688 11.0544L2.82209 9.41007C2.54559 9.36399 2.32177 9.16015 2.2501 8.88915L0.136193 0.89521C0.0354919 0.514597 0.262405 0.124415 0.643018 0.0237137C0.809392 -0.020305 0.986073 -0.00265046 1.14045 0.0734182Z" fill="white"/>
</svg>
