<svg width="24" height="24" viewBox="0 0 24 24" fill="none" xmlns="http://www.w3.org/2000/svg">
<g clip-path="url(#clip0_186_660)">
<path d="M6.22928 17.7282C7.65128 19.1502 9.52239 20.0351 11.5237 20.2321C13.5251 20.4291 15.5328 19.9261 17.2048 18.8086C18.8768 17.6912 20.1096 16.0285 20.693 14.104C21.2765 12.1795 21.1746 10.1122 20.4046 8.25441C19.6346 6.39663 18.2442 4.86334 16.4704 3.91583C14.6966 2.96832 12.6491 2.66523 10.6768 3.0582C8.70456 3.45117 6.9296 4.51589 5.65441 6.07092C4.37922 7.62595 3.68272 9.57505 3.68359 11.5861V13.5137" stroke="white" stroke-width="2.41435" stroke-linecap="round" stroke-linejoin="round"/>
<path d="M1.75293 11.5817L3.68441 13.5132L5.61589 11.5817M11.4103 7.71875V12.5474H16.239" stroke="white" stroke-width="2.41435" stroke-linecap="round" stroke-linejoin="round"/>
</g>
<defs>
<clipPath id="clip0_186_660">
<rect width="23.1777" height="23.1777" fill="white" transform="translate(0.787109 -0.00683594)"/>
</clipPath>
</defs>
</svg>
